<?xml version="1.0" encoding="utf-8"?>
<!-- Generator: Adobe Illustrator 25.0.1, SVG Export Plug-In . SVG Version: 6.00 Build 0)  -->
<svg version="1.0" id="Layer_1" xmlns="http://www.w3.org/2000/svg" xmlns:xlink="http://www.w3.org/1999/xlink" x="0px" y="0px"
	 viewBox="0 0 300 192.2" style="enable-background:new 0 0 300 192.2;" xml:space="preserve">
<style type="text/css">
	.st0{fill:#1C2B33;}
	.st1{fill:url(#SVGID_1_);}
</style>
<g>
	<polygon class="st0" points="118.9,74 127.7,74 142.8,101.3 157.9,74 166.5,74 166.5,118.8 159.3,118.8 159.3,84.5 146.1,108.2 
		139.3,108.2 126.1,84.5 126.1,118.8 118.9,118.8 	"/>
	<g>
		<path class="st0" d="M195.2,93c-1.5-1.5-3.5-2.3-6-2.3c-2.4,0-4.4,0.8-6,2.4c-1.6,1.6-2.6,3.7-3.1,6.4h17.6
			C197.5,96.7,196.7,94.6,195.2,93 M189.9,119.6c-3.4,0-6.3-0.7-8.8-2.2s-4.5-3.5-5.9-6.2c-1.4-2.6-2.1-5.6-2.1-9s0.7-6.5,2.1-9.1
			c1.4-2.6,3.3-4.7,5.8-6.2s5.3-2.2,8.5-2.2s5.9,0.8,8.2,2.3s4.1,3.6,5.3,6.3s1.9,5.9,1.9,9.5v2h-24.6c0.4,2.7,1.6,4.9,3.3,6.5
			c1.8,1.6,4,2.4,6.7,2.4c2.2,0,4-0.3,5.6-1c1.6-0.6,3-1.6,4.4-2.9l3.8,4.7C200.1,117.9,195.4,119.6,189.9,119.6"/>
		<path class="st0" d="M213.5,91.3h-6.7v-5.9h6.7v-9.8h7v9.8h10.1v5.9h-10.1v15c0,2.5,0.4,4.3,1.3,5.3c0.9,1.1,2.3,1.6,4.4,1.6
			c0.9,0,1.7,0,2.3-0.1s1.3-0.2,2.1-0.3v5.9c-0.9,0.3-1.8,0.4-2.7,0.6c-1,0.2-2.1,0.2-3.1,0.2c-7.5,0-11.3-4.1-11.3-12.4V91.3z"/>
		<path class="st0" d="M260,97.1c-0.7-1.9-1.9-3.4-3.5-4.5s-3.5-1.6-5.6-1.7c-3,0-5.4,1-7.1,3c-1.8,2-2.7,4.7-2.7,8.1
			c0,3.4,0.9,6.2,2.6,8.2s4,3,6.9,3c2.2,0,4.1-0.6,5.8-1.7c1.7-1.1,2.9-2.6,3.6-4.5V97.1z M266.9,118.8H260v-4.7
			c-1.2,1.7-2.8,3.1-4.6,4c-1.9,0.9-4,1.4-6.4,1.4c-2.9,0-5.6-0.8-7.8-2.3c-2.3-1.5-4.1-3.6-5.4-6.2c-1.3-2.6-2-5.6-2-9
			s0.7-6.4,2-9.1c1.3-2.6,3.2-4.7,5.5-6.2s5-2.2,8.1-2.2c2.3,0,4.3,0.4,6.1,1.3c1.8,0.9,3.3,2.2,4.5,3.8v-4.3h6.9V118.8z"/>
	</g>
	<g>
		
			<linearGradient id="SVGID_1_" gradientUnits="userSpaceOnUse" x1="55.3068" y1="83.3127" x2="89.0274" y2="112.987" gradientTransform="matrix(1 0 0 -1 0 194.2222)">
			<stop  offset="0" style="stop-color:#0082FB"/>
			<stop  offset="0.1846" style="stop-color:#007CF5"/>
			<stop  offset="0.4402" style="stop-color:#006AE5"/>
			<stop  offset="0.5056" style="stop-color:#0064E0"/>
			<stop  offset="0.703" style="stop-color:#006EE9"/>
			<stop  offset="0.9525" style="stop-color:#0082FB"/>
		</linearGradient>
		<path class="st1" d="M104,100.4c0,1.7,0,3.5,0,5.2c0,0.1,0,0.1,0,0.2c0,0.4,0,0.7-0.1,1.1c-0.1,1-0.3,2-0.5,2.9
			c-0.4,1.5-0.9,2.9-1.6,4.2c-0.6,1.1-1.4,2.1-2.3,2.9c-0.5,0.5-1.1,0.9-1.7,1.3c-1.2,0.7-2.5,1.2-3.9,1.4c-0.2,0-0.3,0-0.5,0.1
			c-1,0-2.1,0-3.1,0c-0.1,0-0.1,0-0.2,0c-0.4-0.1-0.9-0.1-1.3-0.2c-1-0.2-1.9-0.5-2.7-1c-1.1-0.6-2-1.3-2.9-2.1
			c-0.7-0.7-1.4-1.4-2.1-2.2c-1-1.2-1.9-2.5-2.8-3.7c-1.3-2-2.6-4-3.8-6.1c-1.4-2.4-2.8-4.8-4.2-7.1c-0.4-0.7-0.9-1.4-1.3-2.1
			c0,0,0-0.1-0.1-0.1c-0.1-0.1-0.1-0.1-0.2,0c0,0,0,0.1-0.1,0.1c-0.1,0.2-0.3,0.5-0.4,0.7c-0.6,1-1.2,2.1-1.8,3.1
			c-1,1.7-1.9,3.4-2.9,5c-0.9,1.6-1.8,3.1-2.8,4.6c-0.9,1.5-1.9,2.9-3,4.3c-0.9,1.1-1.8,2.2-2.8,3.1c-0.7,0.7-1.5,1.3-2.3,1.8
			c-1.4,0.9-2.9,1.5-4.5,1.7c-0.1,0-0.3,0-0.4,0.1c-1.1,0-2.1,0-3.2,0c-0.1,0-0.1,0-0.2,0c-0.6-0.1-1.3-0.2-1.9-0.4
			c-2.4-0.7-4.3-2-5.8-3.9c-0.8-1-1.5-2.2-2-3.4c-0.6-1.5-1-3.1-1.2-4.7c-0.1-0.6-0.2-1.2-0.2-1.9c0-0.6-0.1-1.2-0.1-1.7
			s0-1.1,0-1.6c0-0.4,0-0.8,0-1.1c0-0.6,0.1-1.2,0.1-1.8c0.1-0.8,0.2-1.6,0.3-2.4c0.3-1.7,0.6-3.4,1.1-5c0.6-2.1,1.3-4.2,2.3-6.1
			c0.8-1.7,1.7-3.3,2.7-4.8c1-1.4,2-2.6,3.2-3.8c0.9-0.8,1.8-1.6,2.8-2.2c1.2-0.8,2.5-1.4,3.9-1.8c1.1-0.3,2.3-0.6,3.5-0.6
			c0.1,0,0.2,0,0.3,0c0.2,0,0.3,0,0.5,0c0.1,0,0.2,0,0.3,0c0.6,0,1.2,0.1,1.7,0.2c1.9,0.3,3.7,0.9,5.3,1.9c1.5,0.9,2.8,1.9,4.1,3.1
			c0.8,0.7,1.5,1.5,2.2,2.2c0.7,0.8,1.3,1.5,1.9,2.3c0.2,0.2,0.2,0.2,0.3,0c0.3-0.4,0.7-0.9,1-1.3c0.7-0.9,1.4-1.7,2.2-2.6
			c0.7-0.7,1.4-1.4,2.1-2.1c0.8-0.7,1.7-1.4,2.7-2s2.1-1.1,3.2-1.4c0.8-0.2,1.5-0.4,2.3-0.4c0.6,0,1.2,0,1.9,0c0.5,0,1,0.1,1.6,0.2
			c1.6,0.3,3.1,1,4.6,1.8c1.3,0.8,2.5,1.8,3.6,2.8c0.3,0.3,0.7,0.7,1,1.1c0.7,0.8,1.3,1.6,1.9,2.5c1.2,1.8,2.2,3.6,3,5.6
			c0.5,1.1,0.9,2.2,1.2,3.4c0.4,1.2,0.7,2.5,1,3.7c0.2,1,0.4,1.9,0.5,2.9c0.1,0.7,0.2,1.3,0.2,2c0.1,0.5,0.1,1,0.1,1.5
			C104,100.2,104,100.3,104,100.4z M97.3,103c0-0.2,0-0.3,0-0.4c0-0.7,0-1.4-0.1-2.1c0-0.6-0.1-1.2-0.2-1.8
			c-0.1-0.9-0.2-1.9-0.4-2.8c-0.4-2.3-1-4.6-1.9-6.7c-0.6-1.5-1.3-3-2.2-4.4c-0.7-1.2-1.6-2.2-2.6-3.2c-0.7-0.7-1.4-1.3-2.3-1.7
			c-1.3-0.8-2.8-1.2-4.3-1.2c-0.4,0-0.8,0.1-1.2,0.1c-0.8,0.2-1.6,0.5-2.3,0.9c-0.8,0.5-1.5,1-2.1,1.6c-0.9,0.9-1.8,1.9-2.6,2.9
			c-0.7,0.9-1.3,1.8-1.9,2.8c-0.2,0.3-0.2,0.2,0,0.5c1.3,2,2.6,4,3.8,6c1.2,2,2.3,3.9,3.5,5.9c0.6,1,1.2,2,1.9,3c1,1.5,1.9,3,3,4.5
			c0.7,1,1.5,2,2.3,3c0.4,0.5,0.9,0.9,1.5,1.3c0.6,0.4,1.2,0.6,1.8,0.7c0.6,0.1,1.1,0.1,1.7,0c1.2-0.1,2.2-0.7,2.9-1.6
			c0.4-0.6,0.7-1.2,1-1.9c0.4-1.2,0.6-2.4,0.6-3.6c0-0.2,0-0.3,0-0.5C97.3,104,97.3,103.5,97.3,103z M40.8,103.4c0,0.3,0,0.6,0,0.9
			c0,0.7,0.1,1.4,0.2,2.1c0.1,0.8,0.3,1.6,0.7,2.4c0.3,0.7,0.7,1.4,1.3,2c0.4,0.4,0.9,0.7,1.4,0.9c0.6,0.2,1.1,0.3,1.7,0.4
			c0.3,0,0.6,0,0.9,0c0.7-0.1,1.3-0.3,1.9-0.6c0.7-0.4,1.2-0.8,1.8-1.3s1.1-1.1,1.5-1.7c1-1.2,1.8-2.4,2.7-3.6
			c1.1-1.6,2.2-3.3,3.2-4.9c0.7-1.1,1.5-2.3,2.2-3.4c0.8-1.3,1.7-2.6,2.5-3.9c0.6-1,1.3-2,1.9-2.9c0.2-0.3,0.2-0.3,0-0.5
			c-0.9-1.3-1.9-2.6-2.9-3.7c-0.8-0.9-1.6-1.7-2.4-2.5c-0.6-0.5-1.2-1-1.9-1.4S56,81,55.1,80.8c-0.6-0.1-1.2-0.2-1.8-0.2
			c-0.5,0-1,0.1-1.5,0.2c-0.9,0.3-1.7,0.7-2.5,1.2c-0.7,0.5-1.3,1-1.8,1.6c-0.5,0.5-0.9,1.1-1.4,1.7c-0.9,1.2-1.6,2.5-2.2,3.9
			c-0.8,1.8-1.4,3.6-1.9,5.4c-0.3,1.3-0.6,2.7-0.8,4c-0.1,0.6-0.2,1.3-0.2,1.9c0,0.5-0.1,1-0.1,1.6
			C40.8,102.4,40.8,102.9,40.8,103.4z"/>
	</g>
</g>
</svg>
