<?xml version="1.0" encoding="utf-8"?>
<!-- Generator: Adobe Illustrator 27.8.0, SVG Export Plug-In . SVG Version: 6.00 Build 0)  -->
<svg version="1.0" id="Logo_00000158727625646119494500000015711314265259652764_"
	 xmlns="http://www.w3.org/2000/svg" xmlns:xlink="http://www.w3.org/1999/xlink" x="0px" y="0px" viewBox="0 0 1194.4 846.11"
	 style="enable-background:new 0 0 1194.4 846.11;" xml:space="preserve">
<style type="text/css">
	.st0{fill:#0866FF;}
	.st1{fill:#FFFFFF;}
	.st2{fill:#0766FF;}
</style>
<g id="Logo">
	<path id="Initiator" class="st0" d="M330.47,423.88c0-64.19-52.03-116.22-116.22-116.22S98.02,359.69,98.02,423.88
		c0,54.51,37.52,100.24,88.15,112.8V459.4H162.2v-35.52h23.97v-15.3c0-39.56,17.9-57.89,56.74-57.89c7.36,0,20.07,1.44,25.27,2.89
		v32.2c-2.74-0.29-7.51-0.43-13.43-0.43c-19.06,0-26.42,7.22-26.42,25.99v12.56h37.96l-6.52,35.52h-31.44v79.86
		C285.87,532.3,330.47,483.3,330.47,423.88z"/>
	<path id="F" class="st1" d="M259.77,459.4l6.52-35.52h-37.96v-12.56c0-18.77,7.36-25.99,26.42-25.99c5.92,0,10.68,0.14,13.43,0.43
		v-32.2c-5.2-1.44-17.9-2.89-25.27-2.89c-38.84,0-56.74,18.34-56.74,57.89v15.3H162.2v35.52h23.97v77.28
		c8.99,2.23,18.39,3.42,28.08,3.42c4.77,0,9.46-0.29,14.08-0.85V459.4H259.77z"/>
</g>
<path id="path46" class="st2" d="M1021.09,484.79h23.46v-37.96l32.74,37.96H1106l-38.11-43.75l32.56-37.93h-26.12l-29.77,34.96
	v-77.19l-23.46,3.08V484.79z M966.98,401.01c-26.05,0-44.14,17.52-44.14,42.92s18.09,42.92,44.14,42.92
	c26.05,0,44.14-17.52,44.14-42.92S993.02,401.01,966.98,401.01z M966.98,466.85c-12.07,0-20.34-9.33-20.34-22.92
	c0-13.59,8.27-22.92,20.34-22.92c12.07,0,20.34,9.33,20.34,22.92C987.31,457.52,979.04,466.85,966.98,466.85z M871.62,401.01
	c-26.05,0-44.14,17.52-44.14,42.92s18.09,42.92,44.14,42.92c26.05,0,44.14-17.52,44.14-42.92S897.67,401.01,871.62,401.01z
	 M871.62,466.85c-12.07,0-20.34-9.33-20.34-22.92c0-13.59,8.27-22.92,20.34-22.92c12.07,0,20.34,9.33,20.34,22.92
	C891.96,457.52,883.69,466.85,871.62,466.85z M781.83,401.01c-10.85,0-19.85,4.26-25.48,12.07v-52.2l-23.49,3.05v120.83h20.83
	l0.41-12.61c5.56,9.41,15.5,14.7,27.73,14.7c22.28,0,38.58-18.09,38.58-42.92C820.41,419.1,804.18,401.01,781.83,401.01
	L781.83,401.01z M776.27,466.85c-12.07,0-20.34-9.33-20.34-22.92c0-13.59,8.27-22.92,20.34-22.92c12.07,0,20.34,9.33,20.34,22.92
	C796.61,457.52,788.34,466.85,776.27,466.85z M685.83,467.91c-12.45,0-21.4-5.79-24.44-15.76h57.8c0.57-3.05,0.96-6.67,0.96-9.1
	c0-26.28-14.7-42.04-39.41-42.04c-24.94,0-42.2,17.52-42.2,42.92c0,25.74,18.09,42.92,44.94,42.92c13.9,0,27.42-4.65,35.87-12.38
	l-8.45-14.88C702.7,465.25,694.67,467.91,685.83,467.91z M680.58,419.25c10.85,0,17.78,6.59,17.78,16.8v0.08h-37.47
	C663.14,425.3,670.14,419.25,680.58,419.25z M601.8,486.88c12.15,0,24.03-4.65,32.4-12.71l-9.17-15.43c-6.51,5.07-13.9,7.8-20.9,7.8
	c-13.02,0-21.71-9.1-21.71-22.58c0-13.49,8.68-22.58,21.71-22.58c6.43,0,13.44,2.33,19.12,6.43l9.33-15.76
	c-7.55-6.82-19.23-11.01-30.8-11.01c-25.48,0-43.49,17.78-43.49,42.92C558.31,469.02,576.32,486.88,601.8,486.88L601.8,486.88z
	 M527.2,403.1l-0.41,12.71c-5.56-9.48-15.5-14.78-27.73-14.78c-22.35,0-38.58,18.09-38.58,42.92c0,24.83,16.33,42.92,38.58,42.92
	c12.22,0,22.2-5.3,27.73-14.7l0.41,12.61h20.83V403.1H527.2z M504.61,466.85c-12.07,0-20.34-9.33-20.34-22.92
	s8.27-22.92,20.34-22.92c12.07,0,20.34,9.33,20.34,22.92S516.65,466.85,504.61,466.85z M458.72,403.26h-21.11v-6.98
	c0-10.44,4.08-14.44,14.68-14.44c3.28,0,5.94,0.08,7.47,0.23v-17.91c-2.89-0.8-9.95-1.6-14.03-1.6c-21.58,0-31.53,10.18-31.53,32.17
	v8.5h-13.33v19.74h13.33v61.78h23.44V423h17.47L458.72,403.26z"/>
</svg>
